<?xml version="1.0" standalone="no"?>
<!DOCTYPE svg PUBLIC "-//W3C//DTD SVG 20010904//EN"
 "http://www.w3.org/TR/2001/REC-SVG-20010904/DTD/svg10.dtd">
<svg version="1.0" xmlns="http://www.w3.org/2000/svg"
 width="512.000000pt" height="512.000000pt" viewBox="0 0 512.000000 512.000000"
 preserveAspectRatio="xMidYMid meet">
<metadata>
Created by potrace 1.11, written by Peter Selinger 2001-2013
</metadata>
<g transform="translate(0.000000,512.000000) scale(0.100000,-0.100000)"
fill="#000000" stroke="none">
<path d="M2880 4001 l0 -1121 1122 0 1121 0 -7 116 c-18 325 -92 598 -244 900
-107 213 -219 370 -387 543 -192 197 -379 331 -637 455 -284 137 -538 204
-846 222 l-122 7 0 -1122z"/>
<path d="M2065 4474 c-355 -41 -555 -98 -841 -242 -213 -107 -370 -219 -543
-387 -197 -192 -331 -379 -455 -637 -160 -330 -220 -594 -221 -963 0 -387 67
-670 243 -1021 107 -213 219 -370 387 -543 192 -197 379 -331 637 -455 330
-160 594 -220 963 -221 387 0 670 67 1021 243 213 107 370 219 543 387 197
192 331 379 455 637 137 284 204 538 222 846 l7 122 -1122 0 -1121 0 0 1120 0
1120 -72 -1 c-40 -1 -86 -4 -103 -5z"/>
</g>
</svg>
