<svg viewBox="0 0 50 50" fill="none"
  xmlns="http://www.w3.org/2000/svg">
  <path d="M28.125 21.875V0C31.0872 0 33.9193 0.577799 36.6211 1.7334C39.3229 2.889 41.6504 4.44336 43.6035 6.39648C45.5566 8.34961 47.111 10.6771 48.2666 13.3789C49.4222 16.0807 50 18.9128 50 21.875H28.125ZM21.875 50C18.9128 50 16.0807 49.4222 13.3789 48.2666C10.6771 47.111 8.34961 45.5566 6.39648 43.6035C4.44336 41.6504 2.889 39.3229 1.7334 36.6211C0.577799 33.9193 0 31.0872 0 28.125C0 25.1628 0.577799 22.3307 1.7334 19.6289C2.889 16.9271 4.44336 14.5996 6.39648 12.6465C8.34961 10.6934 10.6771 9.139 13.3789 7.9834C16.0807 6.8278 18.9128 6.25 21.875 6.25V28.125H43.75C43.75 31.0872 43.1722 33.9193 42.0166 36.6211C40.861 39.3229 39.3066 41.6504 37.3535 43.6035C35.4004 45.5566 33.0729 47.111 30.3711 48.2666C27.6693 49.4222 24.8372 50 21.875 50Z" />
</svg>
